<svg xmlns="http://www.w3.org/2000/svg" xmlns:xlink="http://www.w3.org/1999/xlink" width="50" zoomAndPan="magnify" viewBox="0 0 37.5 37.499999" height="50" preserveAspectRatio="xMidYMid meet" version="1.0"><defs><g/><clipPath id="8a1b307617"><path d="M 0 0 L 37.007812 0 L 37.007812 37.007812 L 0 37.007812 Z M 0 0 " clip-rule="nonzero"/></clipPath></defs><g clip-path="url(#8a1b307617)"><path fill="#ffffff" d="M 0 0 L 37.007812 0 L 37.007812 37.007812 L 0 37.007812 Z M 0 0 " fill-opacity="1" fill-rule="nonzero"/><path fill="#000000" d="M 0 0 L 37.007812 0 L 37.007812 37.007812 L 0 37.007812 Z M 0 0 " fill-opacity="1" fill-rule="nonzero"/></g><g fill="#ffffff" fill-opacity="1"><g transform="translate(21.77795, 21.273523)"><g><path d="M 1.515625 0 L 1.515625 -1.195312 L 0.203125 -1.195312 L 0.203125 0 Z M 1.515625 0 "/></g></g></g><g fill="#ffffff" fill-opacity="1"><g transform="translate(23.889971, 21.273523)"><g><path d="M 4.136719 0 L 4.136719 -3.210938 L 1.515625 -3.210938 L 1.515625 -4.035156 L 4.136719 -4.035156 L 4.136719 -5.238281 L 0.203125 -5.238281 L 0.203125 -2.058594 L 2.828125 -2.058594 L 2.828125 -1.195312 L 0.203125 -1.195312 L 0.203125 0 Z M 4.136719 0 "/></g></g></g><g fill="#ffffff" fill-opacity="1"><g transform="translate(28.616377, 21.273523)"><g><path d="M 4.136719 0 L 4.136719 -5.238281 L 2.828125 -5.238281 L 2.828125 -3.210938 L 1.515625 -3.210938 L 1.515625 -5.238281 L 0.203125 -5.238281 L 0.203125 0 L 1.515625 0 L 1.515625 -2.058594 L 2.828125 -2.058594 L 2.828125 0 Z M 4.136719 0 "/></g></g></g><g fill="#f3ce18" fill-opacity="1"><g transform="translate(1.755812, 21.464573)"><g><path d="M 4.421875 -1.558594 L 4.421875 -5.59375 L 0.21875 -5.59375 L 0.21875 0 L 1.617188 0 L 1.617188 -1.558594 Z M 3.019531 -2.835938 L 1.617188 -2.835938 L 1.617188 -4.3125 L 3.019531 -4.3125 Z M 3.019531 -2.835938 "/></g></g></g><g fill="#f3ce18" fill-opacity="1"><g transform="translate(6.788836, 21.464573)"><g><path d="M 4.421875 0 L 4.421875 -5.59375 L 0.21875 -5.59375 L 0.21875 0 L 1.617188 0 L 1.617188 -1.558594 L 3.019531 -1.558594 L 3.019531 0 Z M 3.019531 -2.835938 L 1.617188 -2.835938 L 1.617188 -4.3125 L 3.019531 -4.3125 Z M 3.019531 -2.835938 "/></g></g></g><g fill="#f3ce18" fill-opacity="1"><g transform="translate(11.847024, 21.464573)"><g><path d="M 4.328125 -4.3125 L 4.328125 -5.59375 L 0.125 -5.59375 L 0.125 -4.3125 L 1.535156 -4.3125 L 1.535156 0 L 2.9375 0 L 2.9375 -4.3125 Z M 4.328125 -4.3125 "/></g></g></g><g fill="#f3ce18" fill-opacity="1"><g transform="translate(16.720669, 21.464573)"><g><path d="M 4.421875 0 L 4.421875 -5.59375 L 3.019531 -5.59375 L 3.019531 -3.429688 L 1.617188 -3.429688 L 1.617188 -5.59375 L 0.21875 -5.59375 L 0.21875 0 L 1.617188 0 L 1.617188 -2.199219 L 3.019531 -2.199219 L 3.019531 0 Z M 4.421875 0 "/></g></g></g></svg>