<svg xmlns="http://www.w3.org/2000/svg" xmlns:xlink="http://www.w3.org/1999/xlink" width="50" zoomAndPan="magnify" viewBox="0 0 37.5 37.499999" height="50" preserveAspectRatio="xMidYMid meet" version="1.0"><defs><clipPath id="8dd544566d"><path d="M 0 0 L 37.007812 0 L 37.007812 37.007812 L 0 37.007812 Z M 0 0 " clip-rule="nonzero"/></clipPath><clipPath id="dc76ee51e7"><path d="M 8.4375 3.699219 L 28.421875 3.699219 L 28.421875 33.289062 L 8.4375 33.289062 Z M 8.4375 3.699219 " clip-rule="nonzero"/></clipPath><clipPath id="a3f6d3c755"><path d="M 8.4375 19.347656 L 28.421875 19.347656 L 28.421875 33.289062 L 8.4375 33.289062 Z M 8.4375 19.347656 " clip-rule="nonzero"/></clipPath></defs><g clip-path="url(#8dd544566d)"><path fill="#ffffff" d="M 0 0 L 37.007812 0 L 37.007812 37.007812 L 0 37.007812 Z M 0 0 " fill-opacity="1" fill-rule="nonzero"/><path fill="#000000" d="M 0 0 L 37.007812 0 L 37.007812 37.007812 L 0 37.007812 Z M 0 0 " fill-opacity="1" fill-rule="nonzero"/></g><g clip-path="url(#dc76ee51e7)"><path fill="#ffffff" d="M 22.832031 9.792969 C 20.652344 8.570312 18.441406 7.3125 16.300781 6.050781 L 14.355469 4.902344 L 10.195312 7.308594 L 13.171875 9.027344 L 19.09375 12.460938 L 19.128906 12.460938 L 22.71875 14.523438 L 23.832031 13.914062 L 23.867188 13.878906 L 26.882812 12.160156 Z M 28.21875 18.726562 L 23.789062 21.28125 L 22.984375 21.777344 L 22.949219 21.777344 L 22.148438 22.238281 L 20.773438 23.042969 L 20.738281 23.078125 L 20.199219 23.386719 C 20.199219 26.480469 20.199219 29.566406 20.199219 32.703125 C 20.199219 32.777344 20.164062 32.890625 20.121094 32.96875 C 19.96875 33.234375 19.625 33.308594 19.359375 33.15625 L 14.128906 30.140625 C 13.941406 30.0625 13.824219 29.875 13.824219 29.644531 C 13.824219 28.574219 13.824219 27.507812 13.824219 26.4375 L 8.820312 23.53125 C 8.554688 23.378906 8.4375 23.035156 8.589844 22.769531 C 8.667969 22.695312 8.746094 22.617188 8.820312 22.539062 L 11.035156 21.28125 L 13.824219 19.675781 L 13.824219 13.914062 C 13.824219 13.800781 13.824219 13.726562 13.898438 13.605469 C 14.050781 13.339844 14.359375 13.265625 14.625 13.417969 L 19.660156 16.316406 L 21.609375 15.171875 L 18.597656 13.453125 L 18.5625 13.417969 L 12.605469 9.980469 L 8.820312 7.804688 C 8.746094 7.769531 8.667969 7.691406 8.589844 7.574219 C 8.4375 7.34375 8.554688 7 8.820312 6.847656 L 14.050781 3.800781 C 14.242188 3.6875 14.4375 3.6875 14.625 3.800781 L 16.875 5.097656 L 18.515625 6.054688 L 28.253906 11.664062 L 28.289062 11.664062 L 28.289062 11.699219 L 28.359375 11.699219 L 28.359375 11.734375 L 28.394531 11.734375 L 28.394531 11.769531 L 28.429688 11.769531 L 28.429688 11.84375 L 28.464844 11.84375 L 28.464844 11.914062 L 28.5 11.914062 L 28.5 12.019531 L 28.535156 12.019531 L 28.535156 18.195312 C 28.558594 18.453125 28.40625 18.648438 28.21875 18.726562 Z M 23.25 20.328125 L 27.414062 17.921875 L 27.414062 13.113281 L 24.398438 14.828125 L 24.398438 14.863281 L 19.09375 17.921875 L 18.488281 18.265625 L 18.453125 18.300781 L 18.144531 18.492188 L 14.703125 20.480469 C 14.667969 20.480469 14.625 20.480469 14.589844 20.515625 L 11.613281 22.234375 L 10.203125 23.035156 L 14.367188 25.441406 L 19.367188 22.578125 L 19.402344 22.578125 L 20.164062 22.117188 L 20.199219 22.082031 L 21.609375 21.277344 L 22.414062 20.816406 L 22.449219 20.78125 Z M 19.09375 24.027344 L 16.652344 25.40625 L 14.933594 26.4375 C 14.933594 27.394531 14.933594 28.34375 14.933594 29.300781 L 19.09375 31.703125 C 19.09375 29.148438 19.09375 26.589844 19.09375 24.027344 Z M 18.558594 16.96875 L 14.933594 14.871094 L 14.933594 19.035156 L 17.566406 17.503906 L 17.871094 17.316406 L 17.910156 17.316406 Z M 18.558594 16.96875 " fill-opacity="1" fill-rule="nonzero"/></g><g clip-path="url(#a3f6d3c755)"><path fill="#f3ce18" d="M 22.832031 9.796875 C 20.652344 8.574219 18.441406 7.316406 16.300781 6.054688 L 14.355469 4.90625 L 10.195312 7.3125 L 13.171875 9.027344 L 19.09375 12.464844 L 19.128906 12.464844 L 22.71875 14.527344 L 23.832031 13.917969 L 23.867188 13.882812 L 26.882812 12.164062 Z M 28.21875 18.730469 L 23.789062 21.285156 L 22.984375 21.78125 L 22.949219 21.78125 L 22.148438 22.242188 L 20.773438 23.046875 L 20.738281 23.082031 L 20.199219 23.386719 C 20.199219 26.480469 20.199219 29.570312 20.199219 32.707031 C 20.199219 32.78125 20.164062 32.894531 20.121094 32.972656 C 19.96875 33.238281 19.625 33.3125 19.359375 33.160156 L 14.128906 30.144531 C 13.941406 30.066406 13.824219 29.878906 13.824219 29.648438 C 13.824219 28.578125 13.824219 27.507812 13.824219 26.441406 L 8.820312 23.535156 C 8.554688 23.382812 8.4375 23.039062 8.589844 22.773438 C 8.667969 22.699219 8.746094 22.621094 8.820312 22.542969 L 11.035156 21.285156 L 13.824219 19.679688 L 13.824219 13.917969 C 13.824219 13.804688 13.824219 13.730469 13.898438 13.609375 C 14.050781 13.34375 14.359375 13.269531 14.625 13.421875 L 19.660156 16.320312 L 21.609375 15.175781 L 18.597656 13.457031 L 18.5625 13.421875 L 12.605469 9.984375 L 8.820312 7.804688 C 8.746094 7.769531 8.667969 7.695312 8.589844 7.578125 C 8.4375 7.347656 8.554688 7.003906 8.820312 6.851562 L 14.050781 3.804688 C 14.242188 3.691406 14.4375 3.691406 14.625 3.804688 L 16.875 5.101562 L 18.515625 6.058594 L 28.253906 11.667969 L 28.289062 11.667969 L 28.289062 11.703125 L 28.359375 11.703125 L 28.359375 11.738281 L 28.394531 11.738281 L 28.394531 11.773438 L 28.429688 11.773438 L 28.429688 11.84375 L 28.464844 11.84375 L 28.464844 11.917969 L 28.5 11.917969 L 28.5 12.023438 L 28.535156 12.023438 L 28.535156 18.199219 C 28.558594 18.457031 28.40625 18.652344 28.21875 18.730469 Z M 23.25 20.328125 L 27.414062 17.925781 L 27.414062 13.113281 L 24.398438 14.832031 L 24.398438 14.867188 L 19.09375 17.925781 L 18.488281 18.269531 L 18.453125 18.304688 L 18.144531 18.492188 L 14.703125 20.484375 C 14.667969 20.484375 14.625 20.484375 14.589844 20.519531 L 11.613281 22.238281 L 10.203125 23.039062 L 14.367188 25.441406 L 19.367188 22.578125 L 19.402344 22.578125 L 20.164062 22.117188 L 20.199219 22.082031 L 21.609375 21.28125 L 22.414062 20.820312 L 22.449219 20.785156 Z M 19.09375 24.03125 L 16.652344 25.40625 L 14.933594 26.441406 C 14.933594 27.398438 14.933594 28.347656 14.933594 29.304688 L 19.09375 31.707031 C 19.09375 29.152344 19.09375 26.59375 19.09375 24.03125 Z M 18.558594 16.96875 L 14.933594 14.875 L 14.933594 19.035156 L 17.566406 17.507812 L 17.871094 17.320312 L 17.910156 17.320312 Z M 18.558594 16.96875 " fill-opacity="1" fill-rule="nonzero"/></g></svg>